<svg width="34" height="34" viewBox="0 0 34 34" fill="none" xmlns="http://www.w3.org/2000/svg">
<path d="M7.02318 11.4425C6.90561 10.632 6.65427 9.66718 6.35357 8.51288L5.45231 5.05287L5.43642 4.99188C6.62014 3.85096 7.97215 2.88382 9.45149 2.13146L12.1719 4.19475C13.1045 4.90212 13.8885 5.49683 14.5827 5.90726C14.9462 6.12216 15.3122 6.30369 15.694 6.43354V11.4701C15.4888 11.5657 15.2921 11.6858 15.1083 11.8302L11.8878 14.361C11.7677 14.4554 11.6562 14.5577 11.5538 14.6667L7.09018 12.7339C7.11717 12.3119 7.08723 11.884 7.02318 11.4425Z" fill="#2EE683"/>
<path d="M3.74185 14.0044C3.25021 14.428 2.55799 14.9005 1.51717 15.6074L0.343933 16.4043C0.463087 13.0087 1.59681 9.87156 3.45092 7.28735L3.917 9.07668C4.23946 10.3146 4.45381 11.1446 4.54907 11.8014C4.63993 12.4277 4.60107 12.772 4.49884 13.0491C4.39744 13.3239 4.20791 13.6029 3.74185 14.0044Z" fill="#2EE683"/>
<path d="M5.83521 25.1419C6.99283 25.1418 7.96875 25.1418 8.76601 25.2354C9.18648 25.2848 9.58807 25.363 9.97107 25.4922L12.3306 22.4048C12.2446 22.2382 12.1731 22.0621 12.1178 21.8781L10.8529 17.6673C10.7902 17.4586 10.7505 17.2469 10.7327 17.0355L6.18844 15.0677C5.95128 15.3656 5.67672 15.6373 5.37367 15.8984C4.76028 16.4269 3.94734 16.979 2.97983 17.6361L0.494101 19.3244C0.785121 21.4124 1.46254 23.3764 2.45169 25.1419L5.83521 25.1419Z" fill="#2EE683"/>
<path d="M16.653 13.7959C16.7432 13.7251 16.8449 13.6931 16.944 13.6931C17.0431 13.6931 17.1448 13.7251 17.235 13.7959L20.4554 16.3267C20.5413 16.3942 20.6067 16.4898 20.6408 16.6034C20.6739 16.7133 20.6753 16.8332 20.6408 16.948L19.3759 21.1588C19.3411 21.2746 19.2757 21.3666 19.1963 21.4309C19.1087 21.5017 19.0055 21.5383 18.8996 21.5383H14.9884C14.8825 21.5383 14.7793 21.5017 14.6917 21.4309C14.6123 21.3666 14.5469 21.2746 14.5121 21.1588L13.2472 16.948C13.2127 16.8332 13.2141 16.7133 13.2472 16.6034C13.2813 16.4898 13.3467 16.3942 13.4325 16.3267L16.653 13.7959Z" fill="#2EE683"/>
<path d="M19.2931 5.95943C19.9958 5.56446 20.7923 4.98726 21.7394 4.30084L24.6406 2.19843C26.0819 2.94753 27.3999 3.90143 28.5562 5.02163L27.6468 8.51306C27.3461 9.66736 27.0947 10.6321 26.9771 11.4427C26.9134 11.8818 26.8835 12.3075 26.9097 12.7273L22.3392 14.672C22.2354 14.5611 22.1223 14.457 22.0002 14.361L18.7797 11.8302C18.5959 11.6858 18.3992 11.5657 18.194 11.4701V6.45359C18.5701 6.33263 18.9325 6.16207 19.2931 5.95943Z" fill="#2EE683"/>
<path d="M15.8551 3.75526C15.2997 3.42692 14.6302 2.92154 13.6261 2.15995L12.1552 1.04434C13.6826 0.581926 15.3028 0.333328 16.9809 0.333328C18.7019 0.333328 20.3618 0.594766 21.9233 1.08013L20.33 2.23478C19.3101 2.9739 18.6302 3.4642 18.0682 3.78005C17.5341 4.08023 17.2231 4.15322 16.9579 4.15027C16.6926 4.14732 16.383 4.06738 15.8551 3.75526Z" fill="#2EE683"/>
<path d="M28.6267 15.8986C29.2401 16.4271 30.053 16.9792 31.0205 17.6363L33.471 19.3006C33.1819 21.3975 32.503 23.3698 31.5101 25.1419L28.4132 25.1419C27.2556 25.1418 26.2796 25.1418 25.4824 25.2354C25.0444 25.2869 24.6269 25.3695 24.2296 25.5086L21.5802 22.3599C21.6561 22.2066 21.7199 22.0456 21.7702 21.8781L23.0351 17.6673C23.0972 17.4608 23.1367 17.2512 23.1547 17.0419L27.8074 15.0622C28.0456 15.3623 28.3217 15.6358 28.6267 15.8986Z" fill="#2EE683"/>
<path d="M21.6808 28.0441C21.3445 28.7878 21.0373 29.7357 20.6702 30.8688L19.8431 33.4213C18.9132 33.5826 17.9569 33.6667 16.9809 33.6667C16.1105 33.6667 15.2557 33.5998 14.4214 33.4709L13.5782 30.8688C13.2111 29.7357 12.9039 28.7878 12.5676 28.0441C12.3959 27.6644 12.2049 27.3101 11.975 26.9872L14.2922 23.9552C14.5164 24.0096 14.7497 24.0383 14.9884 24.0383H18.8996C19.1557 24.0383 19.4057 24.0052 19.6449 23.9429L22.2429 27.0305C22.0265 27.3417 21.8448 27.6813 21.6808 28.0441Z" fill="#2EE683"/>
<path d="M11.2213 31.7053C10.8272 30.4892 10.5617 29.6755 10.2897 29.0743C10.0301 28.5002 9.81626 28.2422 9.59243 28.0762C9.37156 27.9124 9.0746 27.7889 8.47441 27.7184C7.84009 27.6439 7.01188 27.6419 5.76368 27.6419H4.16832C6.09825 29.9683 8.64828 31.7606 11.5646 32.7646L11.2213 31.7053Z" fill="#2EE683"/>
<path d="M25.774 27.7184C26.4083 27.6439 27.2365 27.6419 28.4847 27.6419H29.7935C27.9354 29.8817 25.5024 31.6265 22.7212 32.6493L23.0271 31.7053C23.4212 30.4892 23.6867 29.6755 23.9587 29.0743C24.2183 28.5002 24.4321 28.2422 24.656 28.0762C24.8768 27.9124 25.1738 27.7889 25.774 27.7184Z" fill="#2EE683"/>
<path d="M29.4513 11.8015C29.5465 11.1448 29.7609 10.3148 30.0833 9.07684L30.5392 7.32683C32.3717 9.89672 33.4935 13.0096 33.617 16.3776L32.4832 15.6076C31.4423 14.9007 30.7501 14.4282 30.2585 14.0046C29.7924 13.6031 29.6029 13.3241 29.5015 13.0492C29.3993 12.7722 29.3604 12.4279 29.4513 11.8015Z" fill="#2EE683"/>
</svg>
