<svg width="44" height="44" viewBox="0 0 44 44" fill="none" xmlns="http://www.w3.org/2000/svg">
<path fill-rule="evenodd" clip-rule="evenodd" d="M22 3.66699C13.8998 3.66699 7.33333 11.0051 7.33333 19.2503C7.33333 27.431 12.0144 36.3231 19.318 39.7368C21.0205 40.5326 22.9795 40.5326 24.682 39.7368C31.9856 36.3231 36.6667 27.431 36.6667 19.2503C36.6667 11.0051 30.1002 3.66699 22 3.66699Z" fill="#030049"/>
<path d="M16.5069 15.2765C16.4423 14.8308 16.304 14.3001 16.1386 13.6653L15.6429 11.7623L15.6342 11.7287C16.2852 11.1012 17.0288 10.5693 17.8425 10.1555L19.3387 11.2903C19.8516 11.6793 20.2829 12.0064 20.6647 12.2322C20.8646 12.3504 21.0659 12.4502 21.2759 12.5216V15.2917C21.163 15.3443 21.0548 15.4104 20.9538 15.4898L19.1825 16.8817C19.1164 16.9337 19.0551 16.9899 18.9987 17.0498L16.5438 15.9868C16.5586 15.7547 16.5421 15.5194 16.5069 15.2765Z" fill="#2EE683"/>
<path d="M14.7022 16.6856C14.4318 16.9186 14.0511 17.1784 13.4786 17.5672L12.8333 18.0055C12.8989 16.138 13.5224 14.4125 14.5422 12.9912L14.7985 13.9753C14.9759 14.6562 15.0938 15.1127 15.1462 15.4739C15.1961 15.8184 15.1748 16.0078 15.1185 16.1602C15.0628 16.3113 14.9585 16.4648 14.7022 16.6856Z" fill="#2EE683"/>
<path d="M15.8535 22.8112C16.4902 22.8112 17.027 22.8112 17.4655 22.8627C17.6967 22.8898 17.9176 22.9328 18.1283 23.0039L19.426 21.3058C19.3787 21.2142 19.3394 21.1173 19.309 21.0161L18.6132 18.7002C18.5788 18.5854 18.5569 18.469 18.5472 18.3527L16.0478 17.2704C15.9174 17.4342 15.7664 17.5837 15.5997 17.7273C15.2623 18.018 14.8152 18.3216 14.2831 18.683L12.9159 19.6116C13.076 20.76 13.4486 21.8402 13.9926 22.8112L15.8535 22.8112Z" fill="#2EE683"/>
<path d="M21.8033 16.5709C21.8529 16.532 21.9089 16.5144 21.9634 16.5144C22.0179 16.5144 22.0738 16.532 22.1234 16.5709L23.8947 17.9629C23.9419 18 23.9779 18.0526 23.9966 18.115C24.0148 18.1755 24.0156 18.2414 23.9966 18.3046L23.3009 20.6205C23.2818 20.6842 23.2458 20.7348 23.2021 20.7701C23.154 20.8091 23.0972 20.8292 23.0389 20.8292H20.8878C20.8295 20.8292 20.7728 20.8091 20.7246 20.7701C20.6809 20.7348 20.645 20.6842 20.6258 20.6205L19.9301 18.3046C19.9111 18.2414 19.9119 18.1755 19.9301 18.115C19.9489 18.0525 19.9848 18 20.0321 17.9629L21.8033 16.5709Z" fill="#2EE683"/>
<path d="M23.2554 12.2609C23.6419 12.0436 24.0799 11.7262 24.6008 11.3486L26.1965 10.1923C26.9892 10.6043 27.7141 11.129 28.3501 11.7451L27.8499 13.6654C27.6845 14.3002 27.5463 14.8309 27.4816 15.2766C27.4466 15.5182 27.4301 15.7523 27.4445 15.9832L24.9307 17.0528C24.8736 16.9918 24.8114 16.9345 24.7443 16.8817L22.973 15.4898C22.8719 15.4104 22.7637 15.3443 22.6509 15.2917V12.5327C22.8577 12.4661 23.057 12.3723 23.2554 12.2609Z" fill="#2EE683"/>
<path d="M21.3645 11.0486C21.059 10.868 20.6908 10.59 20.1385 10.1711L19.3295 9.55756C20.1696 9.30323 21.0607 9.1665 21.9837 9.1665C22.9302 9.1665 23.8432 9.31029 24.702 9.57725L23.8257 10.2123C23.2647 10.6188 22.8908 10.8885 22.5817 11.0622C22.2879 11.2273 22.1169 11.2674 21.971 11.2658C21.8251 11.2642 21.6548 11.2202 21.3645 11.0486Z" fill="#2EE683"/>
<path d="M28.3888 17.7274C28.7262 18.0181 29.1733 18.3217 29.7055 18.6831L31.0532 19.5985C30.8942 20.7518 30.5208 21.8365 29.9747 22.8112L28.2714 22.8112C27.6347 22.8112 27.098 22.8112 26.6595 22.8627C26.4186 22.891 26.189 22.9364 25.9704 23.0129L24.5133 21.2811C24.555 21.1968 24.5901 21.1083 24.6178 21.0161L25.3135 18.7002C25.3476 18.5866 25.3693 18.4713 25.3793 18.3562L27.9382 17.2674C28.0692 17.4324 28.2211 17.5829 28.3888 17.7274Z" fill="#2EE683"/>
<path d="M24.5686 24.4074C24.3836 24.8164 24.2147 25.3378 24.0128 25.961L23.5579 27.3649C23.0464 27.4536 22.5204 27.4998 21.9837 27.4998C21.505 27.4998 21.0348 27.4631 20.5759 27.3922L20.1122 25.961C19.9102 25.3378 19.7413 24.8164 19.5564 24.4074C19.4619 24.1986 19.3569 24.0037 19.2304 23.8262L20.5049 22.1585C20.6282 22.1884 20.7565 22.2042 20.8878 22.2042H23.0389C23.1798 22.2042 23.3173 22.186 23.4489 22.1518L24.8778 23.85C24.7587 24.0211 24.6588 24.2079 24.5686 24.4074Z" fill="#2EE683"/>
<path d="M18.8159 26.4211C18.5991 25.7522 18.4531 25.3047 18.3035 24.974C18.1607 24.6583 18.0431 24.5164 17.92 24.4251C17.7985 24.335 17.6352 24.2671 17.3051 24.2283C16.9562 24.1873 16.5007 24.1862 15.8142 24.1862H14.9367C15.9982 25.4657 17.4007 26.4515 19.0047 27.0037L18.8159 26.4211Z" fill="#2EE683"/>
<path d="M26.8199 24.2283C27.1687 24.1873 27.6242 24.1862 28.3108 24.1862H29.0306C28.0086 25.4181 26.6705 26.3777 25.1408 26.9403L25.3091 26.4211C25.5258 25.7522 25.6719 25.3047 25.8214 24.974C25.9642 24.6583 26.0818 24.5164 26.2049 24.4251C26.3264 24.335 26.4898 24.2671 26.8199 24.2283Z" fill="#2EE683"/>
<path d="M28.8424 15.474C28.8948 15.1128 29.0126 14.6563 29.19 13.9754L29.4407 13.0129C30.4486 14.4264 31.0656 16.1384 31.1335 17.9909L30.5099 17.5673C29.9375 17.1785 29.5567 16.9187 29.2863 16.6857C29.03 16.4649 28.9258 16.3114 28.87 16.1603C28.8138 16.0079 28.7924 15.8185 28.8424 15.474Z" fill="#2EE683"/>
</svg>
